<?xml version="1.0" encoding="UTF-8"?>
<!DOCTYPE svg PUBLIC "-//W3C//DTD SVG 1.1//EN" "http://www.w3.org/Graphics/SVG/1.1/DTD/svg11.dtd">
<!-- Creator: CorelDRAW X6 -->
<svg xmlns="http://www.w3.org/2000/svg" xml:space="preserve" width="371px" height="544px" version="1.1" shape-rendering="geometricPrecision" text-rendering="geometricPrecision" image-rendering="optimizeQuality" fill-rule="evenodd" clip-rule="evenodd"
viewBox="0 0 209685 306960"
 xmlns:xlink="http://www.w3.org/1999/xlink">
 <g id="Layer_x0020_1">
  <metadata id="CorelCorpID_0Corel-Layer"/>
  <path fill="#373435" fill-rule="nonzero" d="M31121 304213c-2918,-30292 -260,-60901 529,-91519 -8521,-10348 -19380,-20175 -31650,-29690 11822,5448 22692,11848 31950,19861 594,-16722 1601,-31978 3298,-45958l-9318 -8849 9852 4683c4719,-35250 14170,-62216 33025,-84142l-241 241c-181,-181 -377,-390 -586,-624 -4363,-4895 -6929,-14280 -4876,-25800 691,-3877 1905,-7550 3516,-11042l-3292 -7554 4516 5078c5458,-10361 14320,-19110 23099,-26935 -11638,10375 -20468,25894 -23207,41260 -238,1336 -407,2633 -516,3890l4881 -3908 -5023 7670c81,6357 1846,11335 4413,14215 69,79 147,161 230,248 25886,-28001 68464,-46784 137717,-65340l247 930c-36301,9727 -64580,21008 -87005,32994l22101 7845c-9686,-2742 -19194,-4418 -28409,-4337 -26729,15475 -44063,33688 -55294,56656 3480,-469 6999,-253 10538,280 -4400,470 -8642,1393 -12396,3690 -3332,7428 -6072,15345 -8328,23808 10010,-2647 21210,-4444 32562,-6134 -13745,4067 -25528,8366 -34270,13034 -7552,33017 -8596,74077 -8693,126578 9700,-5386 20526,-10128 32182,-14396 -13734,10077 -25475,20153 -32188,30230 10,11012 2650,22337 45,33035 -864,3549 -9047,3772 -9411,0z"/>
 </g>
</svg>
