<?xml version="1.0" encoding="UTF-8"?>
<!DOCTYPE svg PUBLIC "-//W3C//DTD SVG 1.1//EN" "http://www.w3.org/Graphics/SVG/1.1/DTD/svg11.dtd">
<!-- Creator: CorelDRAW X6 -->
<svg xmlns="http://www.w3.org/2000/svg" xml:space="preserve" width="558px" height="492px" version="1.1" shape-rendering="geometricPrecision" text-rendering="geometricPrecision" image-rendering="optimizeQuality" fill-rule="evenodd" clip-rule="evenodd"
viewBox="0 0 195290 172048"
 xmlns:xlink="http://www.w3.org/1999/xlink">
 <g id="Layer_x0020_1">
  <metadata id="CorelCorpID_0Corel-Layer"/>
  <path fill="#373435" fill-rule="nonzero" d="M38291 171316c11394,-19059 12990,-35540 14128,-49793 334,-4178 651,-8154 1201,-11925 -4285,-2566 -8793,-3605 -12907,-4553 -7048,-1624 -12991,-2994 -15138,-11034 -2343,-8773 -8962,-8841 -14624,-8899 -5336,-55 -9897,-101 -10052,-6482 -188,-7749 1780,-13560 3257,-17923 575,-1697 1074,-3172 1330,-4422 630,-3072 -180,-5456 -5485,-6545l0 0c6199,1271 7367,2970 6588,6769 -273,1331 -781,2832 -1366,4558 -1450,4284 -3383,9990 -3199,17535 129,5294 4187,5335 8936,5384 6059,62 13142,135 15705,9732 1972,7386 7612,8686 14300,10227 4076,939 8529,1966 12840,4453 437,-2703 1009,-5300 1812,-7786 3550,-13601 1206,-22143 -612,-28765 -2243,-8175 -3373,-13085 7169,-21138l0 0c-9940,7593 -8207,13109 -6084,20842 1578,5747 3543,12912 1857,23479 5044,-9596 15307,-17308 37522,-23064l-1 -1c16185,-17330 7137,-29731 -617,-40358 -2377,-3258 -4636,-6353 -6047,-9384 -3447,-7401 -1983,-14341 14431,-21986 829,-386 1310,-291 1544,210l1 0c273,585 -226,1785 -923,3456 -1640,3938 -4876,11091 -1101,15732l0 0c-4155,-5108 -1552,-11978 172,-16118 596,-1432 1024,-2460 938,-2645l0 -2c-46,-100 -13,191 -205,280 -15675,7301 -17139,13785 -13943,20647 1380,2963 3604,6010 5945,9219 7812,10705 16895,23161 1566,40504 7733,-1914 16854,-3603 27628,-5065 14957,-2030 26443,-6520 35725,-13055 -4727,-5456 -7349,-7685 -8651,-8791 -820,-696 -1186,-1008 -1273,-1480 -78,-422 92,-715 397,-1245 879,-1524 3223,-5587 3617,-21593 91,-3722 1702,-4517 4117,-4458 823,20 1719,148 2680,284 3898,554 9423,1548 13153,-4782l0 0c-4102,6961 -9094,6461 -13306,5862 -935,-133 -1807,-257 -2552,-275 -1759,-43 -2933,563 -3002,3394 -400,16282 -2845,20520 -3762,22110 -176,305 -274,476 -269,506 16,87 291,322 906,844 1329,1129 4010,3409 8836,8986 2796,-2039 5391,-4268 7819,-6676 10646,-10557 18644,-24334 26000,-40778l0 0c-7406,16556 -14438,30899 -25206,41576 -8386,8316 -18711,14537 -32417,18189l1 0c-4925,11774 -2673,16919 -677,21481 2181,4985 4074,9309 -3008,19975 -1108,1669 -1018,3137 -236,4246 467,664 1181,1215 2036,1620 877,415 1898,673 2958,741 2723,173 5692,-922 7098,-3872 795,-1669 -88,-4130 -961,-6560 -709,-1975 -1412,-3932 -1288,-5606 275,-3722 4214,-4550 5392,-6023l0 0c-4156,5194 -5355,4926 -3081,11261 949,2644 1911,5322 922,7396 -1629,3418 -5034,4689 -8152,4491 -1197,-76 -2356,-370 -3355,-843 -1021,-484 -1883,-1156 -2462,-1979 -1034,-1467 -1181,-3368 218,-5475 6755,-10173 4973,-14245 2919,-18939 -2040,-4662 -4336,-9909 358,-21576 -3552,890 -7325,1612 -11346,2158 -49832,6763 -63868,18382 -68649,34606l-83 296c-1664,5799 -2175,12182 -2730,19138 -1147,14375 -2131,31387 -14296,50296 -274,426 -1181,-215 -956,-591z"/>
 </g>
</svg>
