<?xml version="1.0" encoding="UTF-8"?>
<!DOCTYPE svg PUBLIC "-//W3C//DTD SVG 1.1//EN" "http://www.w3.org/Graphics/SVG/1.1/DTD/svg11.dtd">
<!-- Creator: CorelDRAW X6 -->
<svg xmlns="http://www.w3.org/2000/svg" xml:space="preserve" width="310px" height="468px" version="1.1" shape-rendering="geometricPrecision" text-rendering="geometricPrecision" image-rendering="optimizeQuality" fill-rule="evenodd" clip-rule="evenodd"
viewBox="0 0 71387 107757"
 xmlns:xlink="http://www.w3.org/1999/xlink">
 <g id="Layer_x0020_1">
  <metadata id="CorelCorpID_0Corel-Layer"/>
  <path fill="#373435" fill-rule="nonzero" d="M5486 107409c3206,-4957 5466,-9716 7012,-14287 -2355,-6527 -3392,-6205 -4814,-5760 -1719,537 -3517,884 -7546,-4615l0 0c3624,4946 5832,4148 7261,3701 1823,-570 3178,-993 5574,5205 4333,-14072 2018,-26347 -18,-37133 -585,-3099 -1146,-6076 -1525,-8941 -2083,-1041 -3089,-2879 -4163,-4840 -1414,-2583 -2853,-5736 -7268,-7008l0 0c4704,1355 6415,3957 7897,6666 935,1708 1816,3316 3422,4299 -1698,-14220 1614,-25611 30053,-35110 641,-2443 1336,-5581 2100,-9585l0 0c-755,3954 -1421,7091 -2030,9561 3590,-1197 7575,-2364 12004,-3502 1444,-371 2380,492 3071,2187 697,1712 1173,4331 1724,7371 1572,8659 3578,21215 13145,24644l0 0c-6136,-2199 -9435,-7570 -11439,-13430 -3358,3250 -2835,3851 -2121,4668 818,936 1637,1993 -739,6110l0 0c2205,-3821 1097,-4973 379,-5795 -898,-1028 -1553,-1779 2313,-5484 -1177,-3584 -1889,-7322 -2486,-10606 -546,-3009 -1017,-5600 -1687,-7246 -505,-1240 -1088,-1897 -1868,-1696 -4652,1196 -8811,2424 -12524,3685 -1603,6215 -2815,7715 -4247,7441l0 0c-727,-139 -1436,-721 -2224,-1366 -1100,-902 -2365,-1938 -3944,-1924 -10806,5118 -15835,10766 -17799,17071 6866,-3485 7839,-2245 9353,-314 779,994 1626,2538 3858,3221l0 0c-2450,-749 -3581,-1706 -4423,-2780 -1331,-1698 -2174,-2772 -9061,819 -1704,6518 -343,13730 1175,21773 1236,6548 2574,13641 2484,21351 4600,-11821 7978,-10905 10802,-10139 1752,475 3664,1121 5244,-3363l26 -45c-1876,5324 -3306,4935 -5521,4334 -2527,-686 -5563,-1507 -10061,10618 2423,-2535 3211,-1946 4236,-1180 812,609 2172,1712 5676,-678l-38 38c-4068,2775 -5155,2195 -6211,1404 -776,-580 -1343,-1004 -4299,2586 -617,8681 -3241,18122 -9903,28422l-850 -348zm35641 -96912c-3551,1209 -6693,2449 -9471,3721 1334,270 2422,1161 3390,1954 738,605 1402,1150 2010,1265l1 0c1201,229 2468,-1159 4070,-6941z"/>
 </g>
</svg>
