<?xml version="1.0" encoding="UTF-8"?>
<!DOCTYPE svg PUBLIC "-//W3C//DTD SVG 1.1//EN" "http://www.w3.org/Graphics/SVG/1.1/DTD/svg11.dtd">
<!-- Creator: CorelDRAW X6 -->
<svg xmlns="http://www.w3.org/2000/svg" xml:space="preserve" width="336px" height="530px" version="1.1" shape-rendering="geometricPrecision" text-rendering="geometricPrecision" image-rendering="optimizeQuality" fill-rule="evenodd" clip-rule="evenodd"
viewBox="0 0 163066 256964"
 xmlns:xlink="http://www.w3.org/1999/xlink">
 <g id="Layer_x0020_1">
  <metadata id="CorelCorpID_0Corel-Layer"/>
  <path fill="#373435" fill-rule="nonzero" d="M8508 229245c-939,-453 -1929,-864 -2969,-1233 893,-526 1805,-987 2738,-1376 -339,-4210 -499,-8294 -493,-12258 -2742,-514 -5323,-1566 -7785,-3016 3006,-1067 5668,-2421 7978,-4067 300,-5573 943,-10899 1893,-16003 -1000,-493 -2058,-936 -3173,-1332 1228,-723 2491,-1326 3799,-1782 678,-3166 1480,-6243 2389,-9241 -1741,-1442 -3799,-2462 -6139,-3104 2607,-796 5164,-1330 7670,-1583 3752,-10680 8936,-20310 15124,-29165 -1265,-503 -2498,-1116 -3702,-1825 3074,-1091 5790,-2483 8136,-4180 4846,-6224 10176,-12069 15824,-17642 -1031,-513 -2125,-975 -3279,-1385 2340,-1378 4809,-2319 7464,-2644 5599,-5264 11457,-10300 17425,-15204 -10641,-6961 -18279,-17726 -23337,-29662 -1764,-438 -3440,-1166 -5051,-2114 1276,-453 2472,-973 3587,-1562 -2251,-6028 -3877,-12279 -4929,-18430 -988,-496 -2037,-941 -3148,-1335 887,-522 1793,-977 2723,-1354 -715,-4940 -1060,-9785 -1063,-14363 -4,-9309 1401,-17599 3991,-23456 2993,-6768 7588,-10595 13564,-9833 5590,714 9162,6909 16193,18310l375 597c-5963,-9670 -13484,-12423 -17326,-12913 -2908,-371 -5397,2062 -7262,6279 -1825,4128 -2977,9747 -3356,16194 602,262 1224,507 1867,735 -639,377 -1289,718 -1950,1021 -36,1005 -55,2027 -54,3065 1,1503 41,3036 120,4593 933,459 1920,873 2961,1243 -908,535 -1837,1000 -2791,1381 362,4606 1067,9376 2141,14140 1945,285 3761,996 5488,2012 -1645,584 -3130,1303 -4449,2158 4326,15878 12879,31115 26662,39266 3407,-2741 6837,-5449 10261,-8141 64,-2250 -680,-4257 -2101,-6059 2225,785 4204,1798 5914,3063l908 -712c-355,-880 -765,-1762 -1227,-2648 1150,253 2262,583 3329,1003 6605,-5164 13209,-10299 19554,-15540 -112,-1169 -750,-2275 -2053,-3294 3320,957 3842,1143 4237,1476 8000,-6708 15532,-13615 22073,-20998 -359,-930 -590,-1910 -719,-2929 736,473 1474,877 2215,1213 2674,-3124 5166,-6335 7438,-9654 -34,-1479 -563,-2809 -1512,-4011 1155,407 2220,900 3184,1486 5900,-9222 10083,-19289 11761,-30620l3440 503c-614,4148 -1474,8136 -2557,11980 371,190 768,360 1189,510 -492,290 -1002,522 -1533,681 -1464,4944 -3300,9650 -5463,14156 243,871 675,1686 1277,2450 -722,-254 -1408,-543 -2055,-866 -5062,10084 -11762,19167 -19564,27679 238,552 501,1105 790,1660 -633,-139 -1252,-308 -1855,-508 -1643,1760 -3332,3496 -5064,5212 615,642 1193,1329 1738,2056 -1340,-73 -2635,-59 -3885,41 -3648,3514 -7464,6951 -11410,10342 760,329 1545,637 2354,924 -2150,1266 -4391,2229 -6751,2795 -4591,3828 -9326,7615 -14144,11410 403,466 791,950 1166,1449 -1009,-54 -1996,-67 -2961,-37 -2519,1978 -5046,3964 -7569,5963 732,315 1488,610 2266,887 -2207,1299 -4509,2279 -6938,2839 -3782,3039 -7536,6119 -11223,9267 533,590 1041,1211 1527,1859 -1261,-68 -2488,-70 -3680,-7 -5978,5186 -11754,10565 -17154,16249 1009,1989 1681,4127 2097,6383 -1884,-1068 -3764,-1918 -5640,-2545 -6461,7204 -12286,14911 -17141,23335l1837 638c-873,101 -1712,284 -2514,552 -1754,3126 -3377,6350 -4847,9684 728,303 1440,663 2137,1073 -1142,406 -2206,876 -3192,1412 -2738,6651 -4888,13729 -6311,21319 2052,497 4001,1337 5872,2439l-6835 3581c-379,2856 -660,5782 -834,8782 910,383 1799,834 2670,1347 -974,346 -1904,728 -2789,1147 -107,2821 -122,5706 -40,8659 3584,606 6944,1952 10144,3837 -3611,1282 -6825,2895 -9630,4849 4088,46288 -5248,30317 -8042,1448z"/>
 </g>
</svg>
